# xmcd
#
# Track frame offsets: 
#        150
#        29307
#        59796
#        90173
#        108100
#        125877
#        175332
#        260081
#        324052
#
# Disc length: 4379 seconds
#
# Revision: 0
# Processed by: cddbd v1.5.2PL0 Copyright (c) Steve Scherf et al.
# Submitted via: ExactAudioCopy v0.99pb3
#
DISCID=76111909
DTITLE=Cornmeal - Live In Chicago, Vol 1
DYEAR=2009
DGENRE=jamgrass
TTITLE0=Girl With The Short Brown Hair
TTITLE1=Calling Me Back Home
TTITLE2=Not At Home Anymore
TTITLE3=Oh Leah Lee
TTITLE4=Jenny In The Middle
TTITLE5=Feather
TTITLE6=The Road
TTITLE7=When The World's Got You Down
TTITLE8=Bonus Track
EXTD=
EXTT0=
EXTT1=
EXTT2=
EXTT3=
EXTT4=
EXTT5=
EXTT6=
EXTT7=
EXTT8=
PLAYORDER=
